<mxfile host="65bd71144e">
    <diagram id="G1-oFciW-R601oYKoe3W" name="Page-1">
        <mxGraphModel dx="1118" dy="790" grid="1" gridSize="10" guides="1" tooltips="1" connect="1" arrows="1" fold="1" page="1" pageScale="1" pageWidth="827" pageHeight="1169" math="0" shadow="0">
            <root>
                <mxCell id="0"/>
                <mxCell id="1" parent="0"/>
                <mxCell id="2" value="Actor" style="shape=umlActor;verticalLabelPosition=bottom;verticalAlign=top;html=1;outlineConnect=0;" vertex="1" parent="1">
                    <mxGeometry x="384" y="360" width="30" height="60" as="geometry"/>
                </mxCell>
                <mxCell id="3" value="Flight" style="ellipse;shape=cloud;whiteSpace=wrap;html=1;" vertex="1" parent="1">
                    <mxGeometry x="130" y="320" width="120" height="80" as="geometry"/>
                </mxCell>
                <mxCell id="5" value="Airport" style="ellipse;shape=cloud;whiteSpace=wrap;html=1;" vertex="1" parent="1">
                    <mxGeometry x="339" y="180" width="120" height="80" as="geometry"/>
                </mxCell>
                <mxCell id="6" value="Plane" style="ellipse;shape=cloud;whiteSpace=wrap;html=1;" vertex="1" parent="1">
                    <mxGeometry x="550" y="320" width="120" height="80" as="geometry"/>
                </mxCell>
            </root>
        </mxGraphModel>
    </diagram>
    <diagram id="UKg-eRh76qHc6lGRPzAw" name="Page-2">
        <mxGraphModel dx="1118" dy="790" grid="1" gridSize="10" guides="1" tooltips="1" connect="1" arrows="1" fold="1" page="1" pageScale="1" pageWidth="827" pageHeight="1169" math="0" shadow="0">
            <root>
                <mxCell id="RfYL9SvGub_6gWTdfqXP-0"/>
                <mxCell id="RfYL9SvGub_6gWTdfqXP-1" parent="RfYL9SvGub_6gWTdfqXP-0"/>
                <mxCell id="jYveJ9pvBZBcJKNjli8G-0" style="edgeStyle=none;html=1;exitX=1;exitY=0.5;exitDx=0;exitDy=0;entryX=0;entryY=0.5;entryDx=0;entryDy=0;startArrow=ERmandOne;startFill=0;endArrow=ERmandOne;endFill=0;" edge="1" parent="RfYL9SvGub_6gWTdfqXP-1" source="RfYL9SvGub_6gWTdfqXP-2" target="RfYL9SvGub_6gWTdfqXP-5">
                    <mxGeometry relative="1" as="geometry"/>
                </mxCell>
                <mxCell id="RfYL9SvGub_6gWTdfqXP-2" value="Plane" style="rounded=1;whiteSpace=wrap;html=1;" vertex="1" parent="RfYL9SvGub_6gWTdfqXP-1">
                    <mxGeometry x="80" y="180" width="120" height="60" as="geometry"/>
                </mxCell>
                <mxCell id="jYveJ9pvBZBcJKNjli8G-1" style="edgeStyle=none;html=1;exitX=0;exitY=0.5;exitDx=0;exitDy=0;entryX=1;entryY=0.5;entryDx=0;entryDy=0;startArrow=ERmandOne;startFill=0;endArrow=ERmandOne;endFill=0;" edge="1" parent="RfYL9SvGub_6gWTdfqXP-1" source="RfYL9SvGub_6gWTdfqXP-3" target="RfYL9SvGub_6gWTdfqXP-5">
                    <mxGeometry relative="1" as="geometry"/>
                </mxCell>
                <mxCell id="jYveJ9pvBZBcJKNjli8G-2" style="edgeStyle=none;html=1;exitX=0.5;exitY=1;exitDx=0;exitDy=0;entryX=0.5;entryY=0;entryDx=0;entryDy=0;startArrow=ERmany;startFill=0;endArrow=ERmany;endFill=0;" edge="1" parent="RfYL9SvGub_6gWTdfqXP-1" source="RfYL9SvGub_6gWTdfqXP-3" target="RfYL9SvGub_6gWTdfqXP-6">
                    <mxGeometry relative="1" as="geometry"/>
                </mxCell>
                <mxCell id="RfYL9SvGub_6gWTdfqXP-3" value="Flight" style="rounded=1;whiteSpace=wrap;html=1;" vertex="1" parent="RfYL9SvGub_6gWTdfqXP-1">
                    <mxGeometry x="560" y="180" width="120" height="60" as="geometry"/>
                </mxCell>
                <mxCell id="RfYL9SvGub_6gWTdfqXP-4" value="Airport" style="rounded=1;whiteSpace=wrap;html=1;" vertex="1" parent="RfYL9SvGub_6gWTdfqXP-1">
                    <mxGeometry x="560" y="500" width="120" height="60" as="geometry"/>
                </mxCell>
                <mxCell id="RfYL9SvGub_6gWTdfqXP-5" value="Flies" style="rhombus;whiteSpace=wrap;html=1;" vertex="1" parent="RfYL9SvGub_6gWTdfqXP-1">
                    <mxGeometry x="320" y="160" width="80" height="80" as="geometry"/>
                </mxCell>
                <mxCell id="jYveJ9pvBZBcJKNjli8G-3" style="edgeStyle=none;html=1;exitX=0.5;exitY=1;exitDx=0;exitDy=0;entryX=0.5;entryY=0;entryDx=0;entryDy=0;endArrow=ERmany;endFill=0;startArrow=ERmany;startFill=0;" edge="1" parent="RfYL9SvGub_6gWTdfqXP-1" source="RfYL9SvGub_6gWTdfqXP-6" target="RfYL9SvGub_6gWTdfqXP-4">
                    <mxGeometry relative="1" as="geometry"/>
                </mxCell>
                <mxCell id="RfYL9SvGub_6gWTdfqXP-6" value="to" style="rhombus;whiteSpace=wrap;html=1;" vertex="1" parent="RfYL9SvGub_6gWTdfqXP-1">
                    <mxGeometry x="580" y="330" width="80" height="80" as="geometry"/>
                </mxCell>
                <mxCell id="jYveJ9pvBZBcJKNjli8G-19" style="edgeStyle=none;html=1;exitX=0.5;exitY=1;exitDx=0;exitDy=0;entryX=0.133;entryY=0.017;entryDx=0;entryDy=0;entryPerimeter=0;startArrow=none;startFill=0;endArrow=classicThin;endFill=1;" edge="1" parent="RfYL9SvGub_6gWTdfqXP-1" source="jYveJ9pvBZBcJKNjli8G-4" target="RfYL9SvGub_6gWTdfqXP-2">
                    <mxGeometry relative="1" as="geometry"/>
                </mxCell>
                <mxCell id="jYveJ9pvBZBcJKNjli8G-4" value="Registration Number" style="ellipse;whiteSpace=wrap;html=1;" vertex="1" parent="RfYL9SvGub_6gWTdfqXP-1">
                    <mxGeometry x="50" y="100" width="70" height="50" as="geometry"/>
                </mxCell>
                <mxCell id="jYveJ9pvBZBcJKNjli8G-23" style="edgeStyle=none;html=1;exitX=0.5;exitY=1;exitDx=0;exitDy=0;entryX=0.833;entryY=-0.033;entryDx=0;entryDy=0;entryPerimeter=0;startArrow=none;startFill=0;endArrow=classicThin;endFill=1;" edge="1" parent="RfYL9SvGub_6gWTdfqXP-1" source="jYveJ9pvBZBcJKNjli8G-5" target="RfYL9SvGub_6gWTdfqXP-2">
                    <mxGeometry relative="1" as="geometry"/>
                </mxCell>
                <mxCell id="jYveJ9pvBZBcJKNjli8G-5" value="Manifacturer" style="ellipse;whiteSpace=wrap;html=1;" vertex="1" parent="RfYL9SvGub_6gWTdfqXP-1">
                    <mxGeometry x="160" y="100" width="70" height="50" as="geometry"/>
                </mxCell>
                <mxCell id="jYveJ9pvBZBcJKNjli8G-20" style="edgeStyle=none;html=1;exitX=1;exitY=0.5;exitDx=0;exitDy=0;entryX=0;entryY=0.5;entryDx=0;entryDy=0;startArrow=none;startFill=0;endArrow=classicThin;endFill=1;" edge="1" parent="RfYL9SvGub_6gWTdfqXP-1" source="jYveJ9pvBZBcJKNjli8G-6" target="RfYL9SvGub_6gWTdfqXP-2">
                    <mxGeometry relative="1" as="geometry"/>
                </mxCell>
                <mxCell id="jYveJ9pvBZBcJKNjli8G-6" value="Model" style="ellipse;whiteSpace=wrap;html=1;" vertex="1" parent="RfYL9SvGub_6gWTdfqXP-1">
                    <mxGeometry y="190" width="70" height="50" as="geometry"/>
                </mxCell>
                <mxCell id="jYveJ9pvBZBcJKNjli8G-21" style="edgeStyle=none;html=1;exitX=0.5;exitY=0;exitDx=0;exitDy=0;entryX=0.25;entryY=1;entryDx=0;entryDy=0;startArrow=none;startFill=0;endArrow=classicThin;endFill=1;" edge="1" parent="RfYL9SvGub_6gWTdfqXP-1" source="jYveJ9pvBZBcJKNjli8G-7" target="RfYL9SvGub_6gWTdfqXP-2">
                    <mxGeometry relative="1" as="geometry"/>
                </mxCell>
                <mxCell id="jYveJ9pvBZBcJKNjli8G-7" value="Capacity" style="ellipse;whiteSpace=wrap;html=1;" vertex="1" parent="RfYL9SvGub_6gWTdfqXP-1">
                    <mxGeometry x="60" y="280" width="70" height="50" as="geometry"/>
                </mxCell>
                <mxCell id="jYveJ9pvBZBcJKNjli8G-22" style="edgeStyle=none;html=1;exitX=0.5;exitY=0;exitDx=0;exitDy=0;entryX=0.858;entryY=1.05;entryDx=0;entryDy=0;entryPerimeter=0;startArrow=none;startFill=0;endArrow=classicThin;endFill=1;" edge="1" parent="RfYL9SvGub_6gWTdfqXP-1" source="jYveJ9pvBZBcJKNjli8G-8" target="RfYL9SvGub_6gWTdfqXP-2">
                    <mxGeometry relative="1" as="geometry"/>
                </mxCell>
                <mxCell id="jYveJ9pvBZBcJKNjli8G-8" value="Flight-Range" style="ellipse;whiteSpace=wrap;html=1;" vertex="1" parent="RfYL9SvGub_6gWTdfqXP-1">
                    <mxGeometry x="160" y="280" width="70" height="50" as="geometry"/>
                </mxCell>
                <mxCell id="jYveJ9pvBZBcJKNjli8G-25" style="edgeStyle=none;html=1;exitX=0.5;exitY=1;exitDx=0;exitDy=0;entryX=0.5;entryY=0;entryDx=0;entryDy=0;startArrow=none;startFill=0;endArrow=classicThin;endFill=1;" edge="1" parent="RfYL9SvGub_6gWTdfqXP-1" source="jYveJ9pvBZBcJKNjli8G-9" target="RfYL9SvGub_6gWTdfqXP-3">
                    <mxGeometry relative="1" as="geometry"/>
                </mxCell>
                <mxCell id="jYveJ9pvBZBcJKNjli8G-9" value="Destination" style="ellipse;whiteSpace=wrap;html=1;" vertex="1" parent="RfYL9SvGub_6gWTdfqXP-1">
                    <mxGeometry x="585" y="70" width="70" height="50" as="geometry"/>
                </mxCell>
                <mxCell id="jYveJ9pvBZBcJKNjli8G-26" style="edgeStyle=none;html=1;exitX=0;exitY=1;exitDx=0;exitDy=0;entryX=0.942;entryY=0.033;entryDx=0;entryDy=0;entryPerimeter=0;startArrow=none;startFill=0;endArrow=classicThin;endFill=1;" edge="1" parent="RfYL9SvGub_6gWTdfqXP-1" source="jYveJ9pvBZBcJKNjli8G-12" target="RfYL9SvGub_6gWTdfqXP-3">
                    <mxGeometry relative="1" as="geometry"/>
                </mxCell>
                <mxCell id="jYveJ9pvBZBcJKNjli8G-12" value="Unique_ID" style="ellipse;whiteSpace=wrap;html=1;" vertex="1" parent="RfYL9SvGub_6gWTdfqXP-1">
                    <mxGeometry x="710" y="120" width="70" height="50" as="geometry"/>
                </mxCell>
                <mxCell id="jYveJ9pvBZBcJKNjli8G-24" style="edgeStyle=none;html=1;exitX=1;exitY=1;exitDx=0;exitDy=0;startArrow=none;startFill=0;endArrow=classicThin;endFill=1;" edge="1" parent="RfYL9SvGub_6gWTdfqXP-1" source="jYveJ9pvBZBcJKNjli8G-13" target="RfYL9SvGub_6gWTdfqXP-3">
                    <mxGeometry relative="1" as="geometry"/>
                </mxCell>
                <mxCell id="jYveJ9pvBZBcJKNjli8G-13" value="Origin&amp;nbsp;" style="ellipse;whiteSpace=wrap;html=1;" vertex="1" parent="RfYL9SvGub_6gWTdfqXP-1">
                    <mxGeometry x="470" y="120" width="70" height="50" as="geometry"/>
                </mxCell>
                <mxCell id="jYveJ9pvBZBcJKNjli8G-30" style="edgeStyle=none;html=1;exitX=1;exitY=1;exitDx=0;exitDy=0;entryX=0;entryY=0;entryDx=0;entryDy=0;startArrow=none;startFill=0;endArrow=classicThin;endFill=1;" edge="1" parent="RfYL9SvGub_6gWTdfqXP-1" source="jYveJ9pvBZBcJKNjli8G-14" target="RfYL9SvGub_6gWTdfqXP-4">
                    <mxGeometry relative="1" as="geometry"/>
                </mxCell>
                <mxCell id="jYveJ9pvBZBcJKNjli8G-14" value="ID" style="ellipse;whiteSpace=wrap;html=1;" vertex="1" parent="RfYL9SvGub_6gWTdfqXP-1">
                    <mxGeometry x="440" y="440" width="70" height="50" as="geometry"/>
                </mxCell>
                <mxCell id="jYveJ9pvBZBcJKNjli8G-29" style="edgeStyle=none;html=1;exitX=1;exitY=0.5;exitDx=0;exitDy=0;entryX=0;entryY=1;entryDx=0;entryDy=0;startArrow=none;startFill=0;endArrow=classicThin;endFill=1;" edge="1" parent="RfYL9SvGub_6gWTdfqXP-1" source="jYveJ9pvBZBcJKNjli8G-15" target="RfYL9SvGub_6gWTdfqXP-4">
                    <mxGeometry relative="1" as="geometry"/>
                </mxCell>
                <mxCell id="jYveJ9pvBZBcJKNjli8G-15" value="Name" style="ellipse;whiteSpace=wrap;html=1;" vertex="1" parent="RfYL9SvGub_6gWTdfqXP-1">
                    <mxGeometry x="440" y="560" width="70" height="50" as="geometry"/>
                </mxCell>
                <mxCell id="jYveJ9pvBZBcJKNjli8G-28" style="edgeStyle=none;html=1;exitX=0;exitY=0;exitDx=0;exitDy=0;entryX=1;entryY=1;entryDx=0;entryDy=0;startArrow=none;startFill=0;endArrow=classicThin;endFill=1;" edge="1" parent="RfYL9SvGub_6gWTdfqXP-1" source="jYveJ9pvBZBcJKNjli8G-16" target="RfYL9SvGub_6gWTdfqXP-4">
                    <mxGeometry relative="1" as="geometry"/>
                </mxCell>
                <mxCell id="jYveJ9pvBZBcJKNjli8G-16" value="City" style="ellipse;whiteSpace=wrap;html=1;" vertex="1" parent="RfYL9SvGub_6gWTdfqXP-1">
                    <mxGeometry x="720" y="560" width="70" height="50" as="geometry"/>
                </mxCell>
                <mxCell id="jYveJ9pvBZBcJKNjli8G-27" style="edgeStyle=none;html=1;exitX=0;exitY=1;exitDx=0;exitDy=0;entryX=1;entryY=0;entryDx=0;entryDy=0;startArrow=none;startFill=0;endArrow=classicThin;endFill=1;" edge="1" parent="RfYL9SvGub_6gWTdfqXP-1" source="jYveJ9pvBZBcJKNjli8G-17" target="RfYL9SvGub_6gWTdfqXP-4">
                    <mxGeometry relative="1" as="geometry"/>
                </mxCell>
                <mxCell id="jYveJ9pvBZBcJKNjli8G-17" value="Country" style="ellipse;whiteSpace=wrap;html=1;" vertex="1" parent="RfYL9SvGub_6gWTdfqXP-1">
                    <mxGeometry x="720" y="440" width="70" height="50" as="geometry"/>
                </mxCell>
                <mxCell id="NcZSe8MkMJqJ-WvlWYls-2" style="edgeStyle=none;html=1;exitX=0;exitY=0.5;exitDx=0;exitDy=0;entryX=1;entryY=0.75;entryDx=0;entryDy=0;startArrow=none;startFill=0;endArrow=classicThin;endFill=1;" edge="1" parent="RfYL9SvGub_6gWTdfqXP-1" source="NcZSe8MkMJqJ-WvlWYls-1" target="RfYL9SvGub_6gWTdfqXP-3">
                    <mxGeometry relative="1" as="geometry"/>
                </mxCell>
                <mxCell id="NcZSe8MkMJqJ-WvlWYls-1" value="Date" style="ellipse;whiteSpace=wrap;html=1;" vertex="1" parent="RfYL9SvGub_6gWTdfqXP-1">
                    <mxGeometry x="720" y="220" width="70" height="50" as="geometry"/>
                </mxCell>
            </root>
        </mxGraphModel>
    </diagram>
    <diagram id="ugoQog4x7OuOQHWneJTk" name="Page-3">
        <mxGraphModel dx="1118" dy="790" grid="1" gridSize="10" guides="1" tooltips="1" connect="1" arrows="1" fold="1" page="1" pageScale="1" pageWidth="827" pageHeight="1169" math="0" shadow="0">
            <root>
                <mxCell id="LaqTC2YB27wjdXXK586U-0"/>
                <mxCell id="LaqTC2YB27wjdXXK586U-1" parent="LaqTC2YB27wjdXXK586U-0"/>
                <mxCell id="LaqTC2YB27wjdXXK586U-2" value="Plane" style="swimlane;" vertex="1" parent="LaqTC2YB27wjdXXK586U-1">
                    <mxGeometry x="40" y="180" width="200" height="200" as="geometry"/>
                </mxCell>
                <mxCell id="IHCIpbHlkX5pHpSxvyzX-3" value="Flaght_range" style="text;html=1;align=center;verticalAlign=middle;resizable=0;points=[];autosize=1;strokeColor=none;fillColor=none;" vertex="1" parent="LaqTC2YB27wjdXXK586U-2">
                    <mxGeometry x="55" y="150" width="90" height="20" as="geometry"/>
                </mxCell>
                <mxCell id="IHCIpbHlkX5pHpSxvyzX-2" value="Capacity" style="text;html=1;align=center;verticalAlign=middle;resizable=0;points=[];autosize=1;strokeColor=none;fillColor=none;" vertex="1" parent="LaqTC2YB27wjdXXK586U-2">
                    <mxGeometry x="65" y="120" width="60" height="20" as="geometry"/>
                </mxCell>
                <mxCell id="IHCIpbHlkX5pHpSxvyzX-1" value="Model" style="text;html=1;align=center;verticalAlign=middle;resizable=0;points=[];autosize=1;strokeColor=none;fillColor=none;" vertex="1" parent="LaqTC2YB27wjdXXK586U-2">
                    <mxGeometry x="70" y="90" width="50" height="20" as="geometry"/>
                </mxCell>
                <mxCell id="IHCIpbHlkX5pHpSxvyzX-0" value="PK Registration_number" style="text;html=1;align=center;verticalAlign=middle;resizable=0;points=[];autosize=1;strokeColor=none;fillColor=none;" vertex="1" parent="LaqTC2YB27wjdXXK586U-2">
                    <mxGeometry x="25" y="30" width="150" height="20" as="geometry"/>
                </mxCell>
                <mxCell id="LaqTC2YB27wjdXXK586U-5" value="FK_Manifacturer_ID" style="text;html=1;align=center;verticalAlign=middle;resizable=0;points=[];autosize=1;strokeColor=none;fillColor=none;" vertex="1" parent="LaqTC2YB27wjdXXK586U-2">
                    <mxGeometry x="40" y="60" width="120" height="20" as="geometry"/>
                </mxCell>
                <mxCell id="LaqTC2YB27wjdXXK586U-3" value="Airport" style="swimlane;" vertex="1" parent="LaqTC2YB27wjdXXK586U-1">
                    <mxGeometry x="570" y="180" width="200" height="200" as="geometry"/>
                </mxCell>
                <mxCell id="IOL4Ebeh2AVyMLjrJND1-3" value="Country" style="text;html=1;align=center;verticalAlign=middle;resizable=0;points=[];autosize=1;strokeColor=none;fillColor=none;" vertex="1" parent="LaqTC2YB27wjdXXK586U-3">
                    <mxGeometry x="70" y="160" width="60" height="20" as="geometry"/>
                </mxCell>
                <mxCell id="IOL4Ebeh2AVyMLjrJND1-2" value="City" style="text;html=1;align=center;verticalAlign=middle;resizable=0;points=[];autosize=1;strokeColor=none;fillColor=none;" vertex="1" parent="LaqTC2YB27wjdXXK586U-3">
                    <mxGeometry x="80" y="120" width="40" height="20" as="geometry"/>
                </mxCell>
                <mxCell id="IOL4Ebeh2AVyMLjrJND1-1" value="Name" style="text;html=1;align=center;verticalAlign=middle;resizable=0;points=[];autosize=1;strokeColor=none;fillColor=none;" vertex="1" parent="LaqTC2YB27wjdXXK586U-3">
                    <mxGeometry x="75" y="80" width="50" height="20" as="geometry"/>
                </mxCell>
                <mxCell id="IOL4Ebeh2AVyMLjrJND1-0" value="PK_ID" style="text;html=1;align=center;verticalAlign=middle;resizable=0;points=[];autosize=1;strokeColor=none;fillColor=none;" vertex="1" parent="LaqTC2YB27wjdXXK586U-3">
                    <mxGeometry x="75" y="40" width="50" height="20" as="geometry"/>
                </mxCell>
                <mxCell id="LaqTC2YB27wjdXXK586U-4" value="Flight" style="swimlane;" vertex="1" parent="LaqTC2YB27wjdXXK586U-1">
                    <mxGeometry x="314" y="180" width="200" height="200" as="geometry"/>
                </mxCell>
                <mxCell id="Jf1-F_69Ppf46RQU2PMI-2" value="PK Unique_id" style="text;html=1;align=center;verticalAlign=middle;resizable=0;points=[];autosize=1;strokeColor=none;fillColor=none;" vertex="1" parent="LaqTC2YB27wjdXXK586U-4">
                    <mxGeometry x="55" y="50" width="90" height="20" as="geometry"/>
                </mxCell>
                <mxCell id="Jf1-F_69Ppf46RQU2PMI-1" value="Destination" style="text;html=1;align=center;verticalAlign=middle;resizable=0;points=[];autosize=1;strokeColor=none;fillColor=none;" vertex="1" parent="LaqTC2YB27wjdXXK586U-4">
                    <mxGeometry x="60" y="100" width="80" height="20" as="geometry"/>
                </mxCell>
                <mxCell id="Jf1-F_69Ppf46RQU2PMI-0" value="Origin" style="text;html=1;align=center;verticalAlign=middle;resizable=0;points=[];autosize=1;strokeColor=none;fillColor=none;" vertex="1" parent="LaqTC2YB27wjdXXK586U-4">
                    <mxGeometry x="75" y="140" width="50" height="20" as="geometry"/>
                </mxCell>
                <mxCell id="QGsB2xDJQ5rTZ-UB9Oe8-0" value="FK_Date_ID" style="text;html=1;align=center;verticalAlign=middle;resizable=0;points=[];autosize=1;strokeColor=none;fillColor=none;" vertex="1" parent="LaqTC2YB27wjdXXK586U-4">
                    <mxGeometry x="60" y="170" width="80" height="20" as="geometry"/>
                </mxCell>
                <mxCell id="U3IEqmqAquSrZMmXdwv--0" value="Manifacturer" style="swimlane;" vertex="1" parent="LaqTC2YB27wjdXXK586U-1">
                    <mxGeometry x="40" y="440" width="200" height="200" as="geometry"/>
                </mxCell>
                <mxCell id="U3IEqmqAquSrZMmXdwv--2" value="PK_Manifactuer_ID" style="text;html=1;align=center;verticalAlign=middle;resizable=0;points=[];autosize=1;strokeColor=none;fillColor=none;" vertex="1" parent="U3IEqmqAquSrZMmXdwv--0">
                    <mxGeometry x="40" y="50" width="120" height="20" as="geometry"/>
                </mxCell>
                <mxCell id="U3IEqmqAquSrZMmXdwv--3" value="Name" style="text;html=1;align=center;verticalAlign=middle;resizable=0;points=[];autosize=1;strokeColor=none;fillColor=none;" vertex="1" parent="U3IEqmqAquSrZMmXdwv--0">
                    <mxGeometry x="75" y="80" width="50" height="20" as="geometry"/>
                </mxCell>
                <mxCell id="U3IEqmqAquSrZMmXdwv--4" value="Phone" style="text;html=1;align=center;verticalAlign=middle;resizable=0;points=[];autosize=1;strokeColor=none;fillColor=none;" vertex="1" parent="U3IEqmqAquSrZMmXdwv--0">
                    <mxGeometry x="75" y="110" width="50" height="20" as="geometry"/>
                </mxCell>
                <mxCell id="U3IEqmqAquSrZMmXdwv--5" value="E-Mail" style="text;html=1;align=center;verticalAlign=middle;resizable=0;points=[];autosize=1;strokeColor=none;fillColor=none;" vertex="1" parent="U3IEqmqAquSrZMmXdwv--0">
                    <mxGeometry x="75" y="145" width="50" height="20" as="geometry"/>
                </mxCell>
                <mxCell id="QGsB2xDJQ5rTZ-UB9Oe8-1" value="Date" style="swimlane;" vertex="1" parent="LaqTC2YB27wjdXXK586U-1">
                    <mxGeometry x="314" y="440" width="200" height="200" as="geometry"/>
                </mxCell>
                <mxCell id="QGsB2xDJQ5rTZ-UB9Oe8-2" value="PK_Date_ID" style="text;html=1;align=center;verticalAlign=middle;resizable=0;points=[];autosize=1;strokeColor=none;fillColor=none;" vertex="1" parent="QGsB2xDJQ5rTZ-UB9Oe8-1">
                    <mxGeometry x="60" y="40" width="80" height="20" as="geometry"/>
                </mxCell>
                <mxCell id="QGsB2xDJQ5rTZ-UB9Oe8-3" value="Time" style="text;html=1;align=center;verticalAlign=middle;resizable=0;points=[];autosize=1;strokeColor=none;fillColor=none;" vertex="1" parent="QGsB2xDJQ5rTZ-UB9Oe8-1">
                    <mxGeometry x="80" y="70" width="40" height="20" as="geometry"/>
                </mxCell>
            </root>
        </mxGraphModel>
    </diagram>
</mxfile>